# xmcd
#
# Track frame offsets: 
#        150
#        15027
#        27975
#        41926
#        56145
#        72404
#        85523
#        97724
#        112183
#        126270
#        139608
#        151917
#        164429
#        176982
#        186067
#        198650
#        213967
#        225725
#
# Disc length: 3207 seconds
#
# Revision: 1
# Processed by: cddbd v1.5.2PL0 Copyright (c) Steve Scherf et al.
# Submitted via: ExactAudioCopy v0.95b2
#
DISCID=f50c8512
DTITLE=Cow Cow Davenport - The Essential Cow Cow Davenport Disc 2
DYEAR=1900
DGENRE=
TTITLE0=Chimes Blues
TTITLE1=Cow Cow Blues - with Dora Carr
TTITLE2=Jim Crow Blues
TTITLE3=Steamboat Blues - with Hound Head Henry
TTITLE4=The Lover And The Beggar - with Lovin' Sam Theard
TTITLE5=Mootch Piddle
TTITLE6=Buckwheat Cakes - with Jim Towel
TTITLE7=Slum Gullion Stomp
TTITLE8=Lighthouse Blues - with Southern Blues Singers
TTITLE9=Jump Little Jitterbug
TTITLE10=Railroad Blues
TTITLE11=The Mess Is Here
TTITLE12=Roosters Crowin' Blues - with Hound Head Henry
TTITLE13=Boogie No. 3
TTITLE14=I Ain't No Ice Man
TTITLE15=I'm Gonna Tell You In Front So You Won't Feel Hurt Behind - w
TTITLE15=ith Lovin' Sam Theard
TTITLE16=Don't You Loudmouth Me
TTITLE17=State Street Blues - with Lovin' Sam Theard
EXTD=hale
EXTT0=
EXTT1=
EXTT2=
EXTT3=
EXTT4=
EXTT5=
EXTT6=
EXTT7=
EXTT8=
EXTT9=
EXTT10=
EXTT11=
EXTT12=
EXTT13=
EXTT14=
EXTT15=
EXTT16=
EXTT17=
PLAYORDER=
